<?xml version="1.0" standalone="no"?>
<!DOCTYPE svg PUBLIC "-//W3C//DTD SVG 1.1//EN" "http://www.w3.org/Graphics/SVG/1.1/DTD/svg11.dtd" >
<!--
2013-9-30: Created.
-->
<svg>
<metadata>
Created by iconfont
</metadata>
<defs>

<font id="iconfont" horiz-adv-x="1024" >
  <font-face
    font-family="iconfont"
    font-weight="500"
    font-stretch="normal"
    units-per-em="1024"
    ascent="896"
    descent="-128"
  />
    <missing-glyph />
    
    <glyph glyph-name="x" unicode="x" horiz-adv-x="1001"
d="M281 543q-27 -1 -53 -1h-83q-18 0 -36.5 -6t-32.5 -18.5t-23 -32t-9 -45.5v-76h912v41q0 16 -0.5 30t-0.5 18q0 13 -5 29t-17 29.5t-31.5 22.5t-49.5 9h-133v-97h-438v97zM955 310v-52q0 -23 0.5 -52t0.5 -58t-10.5 -47.5t-26 -30t-33 -16t-31.5 -4.5q-14 -1 -29.5 -0.5
t-29.5 0.5h-32l-45 128h-439l-44 -128h-29h-34q-20 0 -45 1q-25 0 -41 9.5t-25.5 23t-13.5 29.5t-4 30v167h911zM163 247q-12 0 -21 -8.5t-9 -21.5t9 -21.5t21 -8.5q13 0 22 8.5t9 21.5t-9 21.5t-22 8.5zM316 123q-8 -26 -14 -48q-5 -19 -10.5 -37t-7.5 -25t-3 -15t1 -14.5
t9.5 -10.5t21.5 -4h37h67h81h80h64h36q23 0 34 12t2 38q-5 13 -9.5 30.5t-9.5 34.5q-5 19 -11 39h-368zM336 498v228q0 11 2.5 23t10 21.5t20.5 15.5t34 6h188q31 0 51.5 -14.5t20.5 -52.5v-227h-327z" />
    

    
    <glyph glyph-name="bianji" unicode="&#58881;" d="M931.401143 711.972571L475.136 255.634286l-54.857143 54.857143 444.708572 444.854857H543.378286v-70.582857H77.604571v-705.609143h776.192V402.505143h77.604572V711.972571z m-66.340572 43.373715L969.142857 859.428571l54.857143-54.857142-92.598857-92.598858V-91.428571H0V755.346286h865.060571z"  horiz-adv-x="1024" />

    
    <glyph glyph-name="chenggong" unicode="&#58882;" d="M512-64A448 448 0 1 0 512.064 832.064 448 448 0 0 0 512-64z m0-64A512 512 0 1 1 511.936 896.064 512 512 0 0 1 512-128z m-59.776 320L288 371.84l62.592 67.584 101.632-112L670.464 576 736 506.752 452.224 192z"  horiz-adv-x="1024" />

    
    <glyph glyph-name="duigou" unicode="&#58883;" d="M398.116571 91.428571L146.285714 377.636571l73.874286 76.214858L398.189714 244.297143 800.329143 676.571429 877.714286 598.454857z"  horiz-adv-x="1024" />

    
    <glyph glyph-name="duigou1" unicode="&#58884;" d="M432.298667 128L213.333333 367.786667l83.456 90.112 135.509334-149.333334L723.285333 640 810.666667 547.669333z"  horiz-adv-x="1024" />

    
    <glyph glyph-name="cuowuteshu" unicode="&#58885;" d="M512-93.866667c263.918933 0 477.866667 213.947733 477.866667 477.866667S775.918933 861.866667 512 861.866667 34.133333 647.918933 34.133333 384s213.947733-477.866667 477.866667-477.866667z m0-34.133333C229.239467-128 0 101.239467 0 384 0 666.760533 229.239467 896 512 896c282.760533 0 512-229.239467 512-512 0-282.760533-229.239467-512-512-512zM336.452267 588.8L716.8 208.452267l-29.252267-29.252267L307.2 559.547733 336.452267 588.8zM307.2 208.452267L687.547733 588.8l29.252267-29.252267L336.452267 179.2 307.2 208.452267z"  horiz-adv-x="1024" />

    
    <glyph glyph-name="cuowu" unicode="&#58886;" d="M512 832a448 448 0 1 1 0.064-896.064A448 448 0 0 1 512 832z m0 64a512 512 0 1 0-0.064-1024.064A512 512 0 0 0 512 896z m202.688-256l53.312-53.312L309.312 128 256 181.312 714.688 640zM309.312 640L768 181.312l-53.312-53.312L256 586.688 309.312 640z"  horiz-adv-x="1024" />

    
    <glyph glyph-name="duigou2" unicode="&#58887;" d="M380.224 32L32 410.24l64.96 66.816 283.264-311.04L924.032 736 992 667.52z"  horiz-adv-x="1024" />

    
    <glyph glyph-name="gengduo" unicode="&#58888;" d="M698.148571 431.981714A47.250286 47.250286 0 0 1 651.702857 384c0-26.550857 20.845714-47.981714 46.518857-47.981714A47.250286 47.250286 0 0 1 744.667429 384a47.250286 47.250286 0 0 1-46.518858 47.981714M512 431.981714A47.250286 47.250286 0 0 1 465.481143 384c0-26.550857 20.772571-47.981714 46.518857-47.981714A47.250286 47.250286 0 0 1 558.518857 384 47.323429 47.323429 0 0 1 512 431.981714m-186.221714 0A47.250286 47.250286 0 0 1 279.259429 384c0-26.550857 20.845714-47.981714 46.518857-47.981714A47.250286 47.250286 0 0 1 372.370286 384a47.323429 47.323429 0 0 1-46.592 47.981714M512-69.485714A454.070857 454.070857 0 0 0 58.441143 384c0 250.148571 203.410286 453.485714 453.485714 453.485714A454.070857 454.070857 0 0 0 965.632 384 454.070857 454.070857 0 0 0 512-69.485714M512 896C229.668571 896 0 666.331429 0 384s229.668571-512 512-512 512 229.668571 512 512-229.668571 512-512 512"  horiz-adv-x="1024" />

    
    <glyph glyph-name="guanbi" unicode="&#58889;" d="M583.082667 384L853.333333 654.250667 782.250667 725.333333 512 455.082667 241.749333 725.333333 170.666667 654.250667 440.917333 384 170.666667 113.749333l71.082666-71.082666L512 312.917333 782.250667 42.666667 853.333333 113.749333 583.082667 384z"  horiz-adv-x="1024" />

    
    <glyph glyph-name="fuwushichang" unicode="&#58890;" d="M182.997333 640a378.581333 378.581333 0 0 0 52.266667 113.706667C295.125333 842.538667 387.669333 896 515.754667 896c128.341333 0 219.818667-53.674667 277.632-142.933333A369.578667 369.578667 0 0 0 842.624 640h138.666667c23.594667 0 42.709333-18.986667 42.709333-42.368v-683.264A42.538667 42.538667 0 0 0 981.333333-128H42.666667c-23.552 0-42.666667 18.986667-42.666667 42.368V597.632A42.538667 42.538667 0 0 0 42.666667 640H183.04z m79.786667 0h500.736a285.098667 285.098667 0 0 1-30.592 63.829333c-43.946667 67.84-113.066667 108.373333-217.173333 108.373334-104.277333 0-174.890667-40.789333-220.885334-109.013334A295.466667 295.466667 0 0 1 262.826667 640zM85.333333 511.701333v-511.402666A42.624 42.624 0 0 1 127.658667-42.666667h768.682666c22.912 0 42.325333 19.2 42.325334 42.965334V511.701333A42.624 42.624 0 0 1 896.341333 554.666667H127.658667C104.746667 554.666667 85.333333 535.466667 85.333333 511.701333zM256 469.333333h85.333333v-85.333333H256v85.333333z m426.666667 0h85.333333v-85.333333h-85.333333v85.333333z"  horiz-adv-x="1024" />

    
    <glyph glyph-name="guanbi1" unicode="&#58891;" d="M512 446.683429L135.826286 822.857143 73.142857 760.173714 449.316571 384 73.142857 7.826286l62.683429-62.683429L512 321.316571 888.173714-54.857143l62.683429 62.683429L574.683429 384 950.857143 760.173714 888.173714 822.857143 512 446.683429z"  horiz-adv-x="1024" />

    
    <glyph glyph-name="chenggongteshu" unicode="&#58892;" d="M512-93.866667c263.918933 0 477.866667 213.947733 477.866667 477.866667S775.918933 861.866667 512 861.866667 34.133333 647.918933 34.133333 384s213.947733-477.866667 477.866667-477.866667z m0-34.133333C229.239467-128 0 101.239467 0 384 0 666.760533 229.239467 896 512 896c282.760533 0 512-229.239467 512-512 0-282.760533-229.239467-512-512-512z m-51.712 304.7424L273.066667 379.767467l34.9184 35.874133 152.302933-166.912L752.605867 554.666667l36.5568-36.795734-328.874667-341.128533z"  horiz-adv-x="1024" />

    
    <glyph glyph-name="guanbi2" unicode="&#58893;" d="M561.792 384L960 782.208 910.208 832 512 433.792 113.792 832 64 782.208 462.208 384 64-14.208l49.792-49.792L512 334.208 910.208-64l49.792 49.792L561.792 384z"  horiz-adv-x="1024" />

    
    <glyph glyph-name="jiahaoteshu" unicode="&#58894;" d="M491.52 404.48H0v-40.96h491.52v-491.52h40.96V363.52h491.52v40.96H532.48V896h-40.96v-491.52z"  horiz-adv-x="1024" />

    
    <glyph glyph-name="jiazai" unicode="&#58895;" d="M957.269333 540.330667a469.333333 469.333333 0 1 1 8.192-296.533334l-81.664 24.746667a384 384 0 1 0-6.741333 242.517333l80.213333 29.269334z"  horiz-adv-x="1024" />

    
    <glyph glyph-name="jianhao" unicode="&#58896;" d="M256 469.333333h512v-170.666666H256z"  horiz-adv-x="1024" />

    
    <glyph glyph-name="jiantoushang" unicode="&#58897;" d="M469.333333 896l-341.333333-298.666667 67.754667-69.973333L469.333333 768.085333V-128h85.333334V896h-85.333334z m85.333334 0v-127.914667l273.578666-240.64 67.754667 69.888-341.333333 298.666667z"  horiz-adv-x="1024" />

    
    <glyph glyph-name="jiantou" unicode="&#58898;" d="M1231.0528 324.8128h20.48V451.584h-11.264l15.1552 15.1552-409.6 409.7024-89.8048-89.7024 335.1552-335.1552H0v-126.976h1098.752L755.3024-18.7392l89.7024-89.7024 409.7024 409.6-23.552 23.7568z"  horiz-adv-x="1331" />

    
    <glyph glyph-name="jiantouxia" unicode="&#58899;" d="M469.333333-128l-341.333333 298.666667 67.754667 69.973333L469.333333-0.085333V896h85.333334v-1024h-85.333334z m85.333334 0v127.914667l273.578666 240.64 67.754667-69.888-341.333333-298.666667z"  horiz-adv-x="1024" />

    
    <glyph glyph-name="jiantouyou" unicode="&#58900;" d="M1024 341.333333l-298.666667-341.333333-69.973333 67.754667L896.085333 341.333333H0v85.333334h1024v-85.333334z m0 85.333334h-127.914667l-240.64 273.578666L725.333333 768l298.666667-341.333333z"  horiz-adv-x="1024" />

    
    <glyph glyph-name="jinggao" unicode="&#58901;" d="M512 832a448 448 0 1 1 0-896A448 448 0 0 1 512 832zM512 896a512 512 0 1 0-0.085333-1024.085333A512 512 0 0 0 512 896z m-73.130667-219.392v-320h128v320h-128zM512 81.664a64 64 0 1 1 0 128 64 64 0 0 1 0-128z"  horiz-adv-x="1024" />

    
    <glyph glyph-name="jiantouzuo" unicode="&#58902;" d="M0 341.333333l298.666667-341.333333 69.973333 67.754667L127.914667 341.333333H1024v85.333334H0v-85.333334z m0 85.333334h127.914667l240.64 273.578666L298.666667 768 0 426.666667z"  horiz-adv-x="1024" />

    
    <glyph glyph-name="jinggao1" unicode="&#58903;" d="M512-64A448 448 0 1 0 512.064 832.064 448 448 0 0 0 512-64z m0-64A512 512 0 1 1 511.936 896.064 512 512 0 0 1 512-128zM448 311.488v320h128v-320H448z m64-64a64 64 0 1 0 0-128 64 64 0 0 0 0 128z"  horiz-adv-x="1024" />

    
    <glyph glyph-name="jinggaoteshu" unicode="&#58904;" d="M512 861.866667c263.918933 0 477.866667-213.947733 477.866667-477.866667s-213.947733-477.866667-477.866667-477.866667S34.133333 120.081067 34.133333 384 248.081067 861.866667 512 861.866667z m0 34.133333C229.239467 896 0 666.760533 0 384c0-282.760533 229.239467-512 512-512 282.760533 0 512 229.239467 512 512 0 282.760533-229.239467 512-512 512z m-34.133333-580.266667h68.266666V588.8h-68.266666v-273.066667z m0-136.533333h68.266666v68.266667h-68.266666v-68.266667z"  horiz-adv-x="1024" />

    
    <glyph glyph-name="kejian" unicode="&#58905;" d="M512 54.857143c201.654857 0 377.490286 135.168 438.125714 329.142857C889.417143 577.974857 713.654857 713.142857 512 713.142857S134.509714 577.974857 73.874286 384C134.582857 190.025143 310.345143 54.857143 512 54.857143z m0 731.428571c244.297143 0 450.048-170.349714 512-402.285714-61.952-231.936-267.702857-402.285714-512-402.285714S61.952 152.064 0 384c61.952 231.936 267.702857 402.285714 512 402.285714z m2.852571-585.142857c97.718857 0 177.005714 81.92 177.005715 182.857143s-79.286857 182.857143-177.005715 182.857143c-97.792 0-177.005714-81.92-177.005714-182.857143s79.213714-182.857143 177.005714-182.857143z m0 73.142857c-58.660571 0-106.276571 49.152-106.276571 109.714286s47.542857 109.714286 106.276571 109.714286c58.660571 0 106.203429-49.152 106.203429-109.714286s-47.542857-109.714286-106.203429-109.714286z"  horiz-adv-x="1024" />

    
    <glyph glyph-name="paixujiang" unicode="&#58906;" d="M0 211.029333l55.210667 61.696 200.362666-270.08V896h84.138667v-1024h-84.138667z"  horiz-adv-x="1024" />

    
    <glyph glyph-name="paixusheng" unicode="&#58907;" d="M1022.293333 556.970667l-55.125333-61.696L766.805333 765.44V-128H682.666667V896h84.138666z"  horiz-adv-x="1024" />

    
    <glyph glyph-name="rili" unicode="&#58908;" d="M73.142857-54.857143h877.714286V749.714286h73.142857v-877.714286H0V749.714286h73.142857v-804.571429z m146.285714 438.857143h73.142858v-73.142857H219.428571V384z m256 0h73.142858v-73.142857h-73.142858V384zM731.428571 384h73.142858v-73.142857h-73.142858V384z m-512-219.428571h73.142858v-73.142858H219.428571v73.142858z m256 0h73.142858v-73.142858h-73.142858v73.142858z m256 0h73.142858v-73.142858h-73.142858v73.142858zM0 822.857143h146.285714v-73.142857H0V822.857143z m877.714286 0h146.285714v-73.142857h-146.285714V822.857143zM365.714286 822.857143h292.571428v-73.142857H365.714286V822.857143zM219.428571 896h73.142858v-219.428571H219.428571V896z m512 0h73.142858v-219.428571h-73.142858V896zM73.142857 603.428571h877.714286v-73.142857H73.142857V603.428571z"  horiz-adv-x="1024" />

    
    <glyph glyph-name="shangchuan" unicode="&#58909;" d="M548.734537 794.477714V106.057143h-73.142857V790.089143L271.157394 585.654857 219.445394 637.366857 475.59168 893.586286V896h73.142857v-2.925714l2.413714 2.413714 258.633143-258.633143-51.712-51.712-209.334857 209.334857zM63.94368 310.857143v-365.714286h895.268571V310.857143h0.146286c76.946286 0 63.780571-24.868571 63.780572-54.710857v-329.435429c0-30.208-28.379429-54.710857-64-54.710857H64.016823C28.688823-128 0.016823-103.131429 0.016823-73.289143V256.146286C0.016823 286.354286-2.762606 310.857143 63.724251 310.857143h0.219429z"  horiz-adv-x="1024" />

    
    <glyph glyph-name="shijian" unicode="&#58910;" d="M512 384h219.428571v-73.142857H438.857143V676.571429h73.142857v-292.571429z m0-512A512 512 0 1 0 512 896a512 512 0 0 0 0-1024z m0 73.142857A438.857143 438.857143 0 1 1 512 822.857143a438.857143 438.857143 0 0 1 0-877.714286z"  horiz-adv-x="1024" />

    
    <glyph glyph-name="shaixuan" unicode="&#58911;" d="M1018.408969 868.179673A45.311924 45.311924 0 0 1 976.681039 895.998293H45.695924a45.311924 45.311924 0 0 1-32.597279-77.141204l327.594121-351.572748v-422.399296h86.442522v422.399296c0 26.879955-10.495983 47.786587-18.687969 56.319906L133.674444 811.177101h764.670725L615.721641 523.518914c-8.191986-8.362653-19.541301-30.463949-19.541301-56.319906v-594.431009h85.503857V467.284341l328.020787 351.572748a45.73859 45.73859 0 0 1 8.703985 49.322584z"  horiz-adv-x="1024" />

    
    <glyph glyph-name="sousuo" unicode="&#58912;" d="M1006.445714-97.206857c-29.988571-30.646857-31.890286-44.470857-70.436571-12.726857l-180.662857 164.132571c-60.123429-75.044571-195.730286-99.913143-295.131429-99.913143C206.116571-45.714286 0 165.156571 0 425.179429 0 685.202286 206.116571 896 460.214857 896c254.171429 0 460.288-210.797714 460.288-470.820571 0-101.668571-50.688-241.664-106.496-295.497143l180.882286-158.134857c29.988571-30.646857 41.545143-38.107429 11.556571-68.754286zM460.214857 800.402286c-202.532571 0-366.738286-168.009143-366.738286-375.222857 0-207.213714 164.205714-375.222857 366.738286-375.222858 202.605714 0 366.738286 168.009143 366.738286 375.222858 0 207.213714-164.205714 375.222857-366.738286 375.222857z"  horiz-adv-x="1024" />

    
    <glyph glyph-name="shouqi" unicode="&#58913;" d="M139.337143 347.428571l121.417143-121.417142-51.638857-51.785143L52.809143 330.459429l-1.097143-1.097143L0 381.074286l1.097143 1.170285L0 383.268571l51.712 51.712 1.097143-1.097142L209.188571 590.189714l51.712-51.712L142.921143 420.571429H1024v-73.142858H139.337143z m293.302857 438.857143H1024v-73.142857H432.566857v73.142857z m0-731.428571H1024v-73.142857H432.566857v73.142857z"  horiz-adv-x="1024" />

    
    <glyph glyph-name="wenjian" unicode="&#58914;" d="M398.677333 498.944L508.416 629.76a213.333333 213.333333 0 0 0 326.826667-274.261333L670.72 159.317333l-65.365333 54.869334 164.522666 196.096a128 128 0 0 1-196.096 164.608L409.258667 378.709333l-65.365334 54.869334 54.784 65.365333 54.869334 65.365333 65.365333-54.869333-164.522667-196.096a42.666667 42.666667 0 0 1 65.365334-54.784l190.634666 227.157333 65.365334-54.869333-190.634667-227.157333a128 128 0 0 0-196.096 164.522666l109.653333 130.730667zM715.093333 344.917333l65.365334-54.869333-164.522667-196.096a298.666667 298.666667 0 0 0-457.557333 384L405.333333 772.266667l65.365334-54.784-247.04-294.485334a213.333333 213.333333 0 0 1 326.826666-274.261333l164.522667 196.096z"  horiz-adv-x="1024" />

    
    <glyph glyph-name="xinxi" unicode="&#58915;" d="M512 832a448 448 0 1 1 0.064-896.064A448 448 0 0 1 512 832z m0 64a512 512 0 1 0-0.064-1024.064A512 512 0 0 0 512 896zM448 456.512v-320h128v320H448z m64 64a64 64 0 1 1 0 128 64 64 0 0 1 0-128z"  horiz-adv-x="1024" />

    
    <glyph glyph-name="xinxiteshu" unicode="&#58916;" d="M512-93.866667c263.918933 0 477.866667 213.947733 477.866667 477.866667S775.918933 861.866667 512 861.866667 34.133333 647.918933 34.133333 384s213.947733-477.866667 477.866667-477.866667z m0-34.133333C229.239467-128 0 101.239467 0 384 0 666.760533 229.239467 896 512 896c282.760533 0 512-229.239467 512-512 0-282.760533-229.239467-512-512-512z m-34.133333 580.266667h68.266666v-273.066667h-68.266666v273.066667z m0 136.533333h68.266666v-68.266667h-68.266666V588.8z"  horiz-adv-x="1024" />

    
    <glyph glyph-name="yiwen" unicode="&#58917;" d="M528.384 676.571429c56.173714 0 100.937143-14.921143 135.168-46.518858 32.475429-29.842286 49.152-71.094857 49.152-123.757714 0-39.497143-11.410286-73.728-33.353143-102.692571-8.777143-10.532571-32.475429-33.353143-71.094857-67.584a180.662857 180.662857 0 0 1-41.252571-48.274286 122.514286 122.514286 0 0 1-16.676572-64.073143v-20.187428h-70.217143v20.187428c0 28.964571 5.266286 54.418286 15.798857 76.361143 12.288 26.331429 41.252571 59.684571 88.649143 101.814857 14.043429 14.043429 24.576 24.576 29.842286 31.597714 17.554286 21.942857 26.331429 44.763429 26.331429 69.339429 0 35.108571-10.532571 62.317714-29.842286 81.627429-20.187429 21.065143-49.152 30.72-86.016 30.72-43.885714 0-76.361143-14.043429-97.426286-43.008-19.309714-24.576-28.964571-57.929143-28.964571-100.937143H329.142857c0 61.44 16.676571 110.592 51.785143 147.456C416.036571 657.261714 465.188571 676.571429 528.384 676.571429z m-13.165714-534.528c14.921143 0 28.086857-4.388571 38.619428-14.921143 9.654857-9.654857 14.921143-21.942857 14.921143-36.864a48.420571 48.420571 0 0 0-15.798857-37.741715 53.833143 53.833143 0 0 0-37.741714-14.921142 53.833143 53.833143 0 0 0-37.741715 14.921142 50.249143 50.249143 0 0 0-14.921142 37.741715c0 14.921143 4.388571 27.209143 14.921142 36.864a50.249143 50.249143 0 0 0 37.741715 14.921143zM58.441143 384a453.997714 453.997714 0 0 0 453.485714 453.558857A454.070857 454.070857 0 0 0 965.485714 384c0-250.075429-203.410286-453.485714-453.485714-453.485714C261.851429-69.485714 58.441143 133.851429 58.441143 384zM0 384c0-282.331429 229.668571-512 512-512s512 229.668571 512 512-229.668571 512-512 512-512-229.668571-512-512z"  horiz-adv-x="1024" />

    
    <glyph glyph-name="yiwen1" unicode="&#58918;" d="M512 810.666667a426.666667 426.666667 0 1 1 0-853.333334A426.666667 426.666667 0 0 1 512 810.666667z m0 85.333333a512 512 0 1 0-0.085333-1024.085333A512 512 0 0 0 512 896z m1.706667-219.392c-63.146667 0-112.298667-19.370667-147.370667-58.026667-35.157333-36.778667-51.797333-85.930667-51.797333-147.370666h69.290666c0 43.008 9.642667 76.373333 29.013334 100.949333 21.077333 28.928 53.504 43.008 97.365333 43.008 36.864 0 65.877333-9.728 86.016-30.72 19.370667-19.370667 29.866667-46.592 29.866667-81.664 0-24.576-8.789333-47.36-26.282667-69.376a389.12 389.12 0 0 0-29.866667-31.573333c-47.445333-42.154667-76.373333-75.434667-88.661333-101.802667a174.506667 174.506667 0 0 1-15.786667-76.373333v-20.138667h70.229334V223.573333c0 23.722667 5.205333 44.8 16.64 64.085334 8.789333 15.786667 21.930667 31.573333 41.301333 48.298666 38.570667 34.133333 62.293333 57.002667 71.082667 67.584 21.930667 29.013333 33.28 63.146667 33.28 102.656 0 52.650667-16.64 93.866667-49.066667 123.733334-34.304 31.573333-79.018667 46.592-135.168 46.592z m-13.141334-534.528a50.261333 50.261333 0 0 1-37.717333-14.933333 47.104 47.104 0 0 1-14.933333-36.864c0-14.933333 4.437333-27.306667 14.933333-37.802667a53.76 53.76 0 0 1 37.717333-14.848 53.76 53.76 0 0 1 37.802667 14.848 48.384 48.384 0 0 1 15.786667 37.802667 50.346667 50.346667 0 0 1-14.933334 36.864 52.224 52.224 0 0 1-38.656 14.933333z"  horiz-adv-x="1024" />

    
    <glyph glyph-name="zhankai" unicode="&#58919;" d="M884.662857 347.428571l-121.417143-121.417142 51.638857-51.785143 156.306286 156.233143 1.097143-1.097143L1024 381.074286l-1.097143 1.170285L1024 383.268571l-51.712 51.712-1.097143-1.097142-156.306286 156.233142-51.712-51.712L881.078857 420.571429H0v-73.142858h884.662857z m-293.302857 438.857143H0v-73.142857h591.433143v73.142857z m0-731.428571H0v-73.142857h591.433143v73.142857z"  horiz-adv-x="1024" />

    
    <glyph glyph-name="zhixiangshang" unicode="&#58920;" d="M521.362286 665.014857l-34.450286 34.523429L73.142857 285.769143l68.973714-68.973714 344.795429 344.795428 344.795429-344.795428 68.973714 68.973714-379.318857 379.245714z"  horiz-adv-x="1024" />

    
    <glyph glyph-name="zhixiangshang1" unicode="&#58921;" d="M511.658667 522.581333L239.274667 250.026667 170.666667 318.72l339.114666 339.114667 1.877334-1.877334 1.877333 1.877334 339.114667-339.114667-68.522667-68.608-272.469333 272.469333z"  horiz-adv-x="1024" />

    
    <glyph glyph-name="xiazai" unicode="&#58922;" d="M548.734537 108.982857v-2.925714h-73.142857v2.413714L219.445394 364.690286l51.712 51.712 204.434286-204.434286V896h73.142857v-688.420571l209.334857 209.334857 51.712-51.712-258.633143-258.633143-2.413714 2.413714zM63.94368 310.857143v-365.714286h895.268571V310.857143h0.146286c76.946286 0 63.780571-24.868571 63.780572-54.710857v-329.435429c0-30.208-28.379429-54.710857-64-54.710857H64.016823C28.688823-128 0.016823-103.131429 0.016823-73.289143V256.146286C0.016823 286.354286-2.762606 310.857143 63.724251 310.857143h0.219429z"  horiz-adv-x="1024" />

    
    <glyph glyph-name="zhixiangxia" unicode="&#58923;" d="M521.362286 102.985143l-34.450286-34.523429L73.142857 482.230857l68.973714 68.973714 344.795429-344.795428 344.795429 344.795428 68.973714-68.973714-379.318857-379.245714z"  horiz-adv-x="1024" />

    
    <glyph glyph-name="zhixiangxia1" unicode="&#58924;" d="M511.658667 285.525333L239.274667 557.994667 170.666667 489.386667l339.114666-339.114667 1.877334 1.877333 1.877333-1.877333 339.114667 339.114667-68.522667 68.608-272.469333-272.469334z"  horiz-adv-x="1024" />

    
    <glyph glyph-name="zhixiangxiateshu" unicode="&#58925;" d="M970.24 666.5728l50.688-50.688-511.3344-511.3856L0 614.0416l50.688 50.688 458.9056-458.8544z"  horiz-adv-x="1024" />

    
    <glyph glyph-name="zhixiangyou" unicode="&#58926;" d="M793.014857 374.637714l34.523429 34.450286L413.769143 822.857143l-68.973714-68.973714 344.795428-344.795429-344.795428-344.795429 68.973714-68.973714 379.245714 379.318857z"  horiz-adv-x="1024" />

    
    <glyph glyph-name="zhixiangyou1" unicode="&#58927;" d="M650.581333 384.341333L378.026667 656.725333 446.72 725.333333l339.114667-339.114666-1.877334-1.877334 1.877334-1.877333-339.114667-339.114667-68.608 68.522667 272.469333 272.469333z"  horiz-adv-x="1024" />

    
    <glyph glyph-name="zhixiangyouteshu" unicode="&#58928;" d="M307.2-74.24l50.688-50.688 511.3856 511.3344L359.68 896l-50.688-50.688 458.9056-458.9056z"  horiz-adv-x="1024" />

    
    <glyph glyph-name="zhixiangzuo" unicode="&#58929;" d="M413.525333 384.341333l272.469334 272.384L617.386667 725.333333 278.272 386.218667l1.877333-1.877334-1.877333-1.877333 339.114667-339.114667 68.608 68.522667-272.469334 272.469333z"  horiz-adv-x="1024" />

    
    <glyph glyph-name="zhixiangshangteshu" unicode="&#58930;" d="M970.24 104.448l50.688 50.688L509.5936 666.624 0 156.9792l50.688-50.688 458.9056 458.9056z"  horiz-adv-x="1024" />

    
    <glyph glyph-name="zhixiangzuo1" unicode="&#58931;" d="M230.985143 374.637714l-34.523429 34.450286L610.230857 822.857143l68.973714-68.973714-344.795428-344.795429 344.795428-344.795429-68.973714-68.973714-379.245714 379.318857z"  horiz-adv-x="1024" />

    
    <glyph glyph-name="zhixiangzuoteshu" unicode="&#58932;" d="M715.6736-74.24l-50.688-50.688L153.6 386.4064 663.1936 896l50.688-50.688L254.976 386.4064z"  horiz-adv-x="1024" />

    
    <glyph glyph-name="zhidingteshu" unicode="&#58933;" d="M465.454567 737.093425V58.181734h93.090866V732.392336L906.938002 383.999767 972.799791 449.81501 554.961435 867.653366A46.405797 46.405797 0 0 1 512 895.999535a46.545433 46.545433 0 0 1-22.760717-5.91127L488.029102 891.344991l-7.307633-7.307633c-1.210181-1.070545-2.327272-2.187635-3.397817-3.397816L46.545666 449.81501 112.360909 383.999767 465.454567 737.093425zM139.636533-128h744.726934v93.090867H139.636533v-93.090867z"  horiz-adv-x="1024" />

    
    <glyph glyph-name="zhongshi" unicode="&#58934;" d="M906.24 186.538667c-6.229333-2.389333-35.669333 0.853333-38.4-4.949334-61.44-120.234667-246.442667-209.749333-371.882667-210.773333C280.490667-31.232 78.08 181.077333 79.018667 388.437333 79.957333 595.882667 293.461333 816.896 492.373333 815.786667c110.336-0.682667 289.877333-100.010667 364.458667-183.808l-161.450667-6.229334c-13.397333 0-31.232-33.28-31.232-47.104 0-13.909333 17.834667-32.085333 31.232-32.085333h213.504c13.397333 0 29.184 49.493333 29.184 63.317333V834.645333A26.282667 26.282667 0 0 1 913.066667 860.672c-13.482667 0-56.064-12.202667-56.064-26.026667l-2.986667-96.768c-5.461333 8.106667-46.336 49.834667-98.474667 82.773334A487.850667 487.850667 0 0 1 496.042667 896c-66.730667 0-131.754667-13.312-192.853334-40.533333a489.813333 489.813333 0 0 1-157.44-109.482667A506.794667 506.794667 0 0 1 39.253333 583.253333 523.093333 523.093333 0 0 1 0 384c0-68.949333 12.885333-136.106667 39.253333-199.253333 24.661333-60.245333 60.501333-115.2 105.898667-162.730667 45.397333-46.933333 98.133333-83.370667 157.44-109.482667a478.293333 478.293333 0 0 1 192.853333-40.533333 483.84 483.84 0 0 1 261.12 77.056 511.573333 511.573333 0 0 1 179.370667 200.362667 27.050667 27.050667 0 0 1-10.666667 35.328 22.186667 22.186667 0 0 1-19.029333 1.706666z"  horiz-adv-x="1024" />

    


  </font>
</defs>
</svg>
